<?xml version="1.0" encoding="utf-8"?>
<!-- Generator: Adobe Illustrator 16.0.0, SVG Export Plug-In . SVG Version: 6.00 Build 0)  -->
<!DOCTYPE svg PUBLIC "-//W3C//DTD SVG 1.1//EN" "http://www.w3.org/Graphics/SVG/1.1/DTD/svg11.dtd">
<svg version="1.1" id="Ebene_1" xmlns="http://www.w3.org/2000/svg" xmlns:xlink="http://www.w3.org/1999/xlink" x="0px" y="0px"
	 width="274px" height="187px" viewBox="0 0 274 187" enable-background="new 0 0 274 187" xml:space="preserve">
<g>
	<path fill="#FFFFFF" d="M231,74c-1.271,0-2.527,0.066-3.771,0.174C223.591,55.831,207.413,42,188,42c-2.529,0-5,0.246-7.398,0.694
		C175.01,18.246,153.145,0,127,0C99.566,0,76.83,20.087,72.682,46.355C68.592,45.475,64.353,45,60,45C26.863,45,0,71.863,0,105
		c0,33.137,26.863,60,60,60c5.68,0,11.169-0.801,16.376-2.275C86.257,177.369,103.004,187,122,187
		c16.872,0,31.962-7.604,42.051-19.564C170.354,171.581,177.893,174,186,174c13.091,0,24.711-6.289,32.009-16.01
		c4.101,1.299,8.462,2.01,12.991,2.01c23.748,0,43-19.252,43-43S254.748,74,231,74z M132,141c-22.091,0-40-17.908-40-40
		c0-22.091,17.909-40,40-40c22.092,0,40,17.909,40,40C172,123.092,154.092,141,132,141z M149.152,84.348l-23.839,23.82l-10.24-9.428
		c-1.897-1.746-4.974-1.746-6.871,0s-1.897,4.58,0,6.326l13.742,12.652c1.21,1.115,2.899,1.512,4.458,1.202
		c1.017-0.116,2.004-0.546,2.784-1.325l26.621-26.599c1.838-1.836,1.838-4.813,0-6.65C153.971,82.512,150.988,82.512,149.152,84.348
		z"/>
</g>
</svg>
