<?xml version="1.0" encoding="utf-8"?>
<!-- Generator: Adobe Illustrator 16.0.0, SVG Export Plug-In . SVG Version: 6.00 Build 0)  -->
<!DOCTYPE svg PUBLIC "-//W3C//DTD SVG 1.1//EN" "http://www.w3.org/Graphics/SVG/1.1/DTD/svg11.dtd">
<svg version="1.1" id="Ebene_1" xmlns="http://www.w3.org/2000/svg" xmlns:xlink="http://www.w3.org/1999/xlink" x="0px" y="0px"
	 width="274px" height="187px" viewBox="0 0 274 187" enable-background="new 0 0 274 187" xml:space="preserve">
<g>
	<path fill="#FFFFFF" d="M230.999,74c-1.271,0-2.526,0.066-3.771,0.174C223.589,55.831,207.411,42,187.999,42
		c-2.528,0-4.998,0.246-7.397,0.694C175.009,18.246,153.145,0,127,0C99.566,0,76.83,20.087,72.682,46.355
		C68.592,45.475,64.353,45,60,45C26.863,45,0,71.863,0,105c0,33.137,26.863,60,60,60c5.68,0,11.169-0.801,16.376-2.277
		C86.257,177.369,103.004,187,122,187c16.872,0,31.962-7.605,42.05-19.564c6.304,4.146,13.845,6.564,21.949,6.564
		c13.092,0,24.711-6.289,32.008-16.01c4.101,1.299,8.461,2.01,12.992,2.01c23.748,0,43-19.252,43-43S254.747,74,230.999,74z
		 M132,141c-22.091,0-40-17.908-40-40s17.909-40,40-40c22.093,0,39.999,17.908,39.999,40S154.093,141,132,141z M153.501,98
		c0,0-2.622,2.568-6.501,2c-2.828-0.414-6.312-4.021-10-4c-3.306,0.018-6.697,4.148-10,4c-3.698-0.168-7.188-4-10-4
		c-3.937,0-6.5,2-6.5,2c-1.933,0-3.5,1.566-3.5,3.5v1c0,1.934,1.567,3.5,3.5,3.5c0,0,2.628-3,6.5-3c2.802,0,6.296,3.969,10,4
		c3.395,0.029,6.675-3.994,10-4c3.749-0.006,7.102,3.977,10,4c4.062,0.033,6.501-1,6.501-1c1.933,0,3.5-1.566,3.5-3.5v-1
		C157.001,99.566,155.434,98,153.501,98z M153.501,83.999c0,0-2.622,2.57-6.501,2c-2.828-0.414-6.312-4.02-10-4
		c-3.306,0.02-6.697,4.15-10,4c-3.698-0.166-7.188-4-10-4c-3.937,0-6.5,2-6.5,2c-1.933,0-3.5,1.568-3.5,3.501v1
		c0,1.932,1.567,3.5,3.5,3.5c0,0,2.628-3,6.5-3c2.802,0,6.296,3.969,10,4c3.395,0.027,6.675-3.996,10-4
		c3.749-0.006,7.102,3.977,10,4c4.062,0.033,6.501-1,6.501-1c1.933,0,3.5-1.568,3.5-3.5v-1
		C157.001,85.567,155.434,83.999,153.501,83.999z M153.501,112c0,0-2.622,2.568-6.501,2c-2.828-0.414-6.312-4.021-10-4
		c-3.306,0.018-6.697,4.148-10,4c-3.698-0.168-7.188-4-10-4c-3.937,0-6.5,2-6.5,2c-1.933,0-3.5,1.566-3.5,3.5v1
		c0,1.934,1.567,3.5,3.5,3.5c0,0,2.628-3,6.5-3c2.802,0,6.296,3.969,10,4c3.395,0.029,6.675-3.994,10-4
		c3.749-0.006,7.102,3.977,10,4c4.062,0.033,6.501-1,6.501-1c1.933,0,3.5-1.566,3.5-3.5v-1C157.001,113.566,155.434,112,153.501,112
		z"/>
</g>
</svg>
